<svg xmlns="http://www.w3.org/2000/svg" width="1200" height="420" viewBox="0 0 1200 420" role="img" aria-label="Profile terminal dark">
  <defs>
    <linearGradient id="bg" x1="0" y1="0" x2="1" y2="1">
      <stop offset="0%" stop-color="#060b19"/>
      <stop offset="100%" stop-color="#0b1220"/>
    </linearGradient>
    <clipPath id="avatarClip">
      <rect x="42" y="88" width="470" height="286" rx="14" ry="14"/>
    </clipPath>
  </defs>

  <rect width="1200" height="420" fill="url(#bg)"/>

  <rect x="20" y="20" width="1160" height="380" rx="12" fill="none" stroke="#16e0ff" opacity="0.85"/>
  <rect x="30" y="30" width="1140" height="360" rx="12" fill="#0a1020" stroke="#1b9cff" opacity="0.95"/>

  <circle cx="52" cy="47" r="4.5" fill="#ef4444"/>
  <circle cx="68" cy="47" r="4.5" fill="#f59e0b"/>
  <circle cx="84" cy="47" r="4.5" fill="#22c55e"/>

  <text x="600" y="50" text-anchor="middle" fill="#8aa4c7" font-family="ui-monospace, Menlo, Consolas, monospace" font-size="14">vaibhav@devos ~ % ./profile.sh --live</text>

  <rect x="36" y="58" width="500" height="320" rx="12" fill="none" stroke="#24436a"/>
  <text x="52" y="78" fill="#10d6ff" font-family="ui-monospace, Menlo, Consolas, monospace" font-size="13">VISUAL.MAP</text>
  <line x1="42" y1="84" x2="526" y2="84" stroke="#1c3657"/>

  <image href="./profile.jpg" x="42" y="88" width="470" height="286" preserveAspectRatio="xMidYMid slice" clip-path="url(#avatarClip)"/>

  <rect x="542" y="58" width="622" height="320" rx="12" fill="none" stroke="#16e0ff"/>
  <text x="558" y="78" fill="#10d6ff" font-family="ui-monospace, Menlo, Consolas, monospace" font-size="13">SYSTEM.INFO</text>
  <line x1="548" y1="84" x2="1150" y2="84" stroke="#1c3657"/>

  <text x="558" y="104" fill="#b388ff" font-family="ui-monospace, Menlo, Consolas, monospace" font-size="30" font-weight="700">vaibhav@devos</text>

  <g fill="#d8e5ff" font-family="ui-monospace, Menlo, Consolas, monospace" font-size="15">
    <text x="560" y="136"><tspan fill="#10d6ff">. Subject</tspan><tspan> .......................... Vaibhav Chaudhary</tspan></text>
    <text x="560" y="162"><tspan fill="#10d6ff">. Role</tspan><tspan> ............................. Engineering Physics Undergrad</tspan></text>
    <text x="560" y="188"><tspan fill="#10d6ff">. Origin</tspan><tspan> ........................... Uttar Pradesh, India</tspan></text>
    <text x="560" y="214"><tspan fill="#10d6ff">. Education</tspan><tspan> ........................ BTech, IIT Mandi</tspan></text>
    <text x="560" y="240"><tspan fill="#10d6ff">. Status</tspan><tspan> ........................... Building and Learning</tspan></text>
  </g>

  <line x1="560" y1="266" x2="1144" y2="266" stroke="#2b456a"/>

  <g fill="#d8e5ff" font-family="ui-monospace, Menlo, Consolas, monospace" font-size="15">
    <text x="560" y="292"><tspan fill="#10d6ff">. Grid.LinkedIn</tspan><tspan> .................... www.linkedin.com/in/heromontage</tspan></text>
  </g>
</svg>
